<?xml version="1.0" encoding="utf-8"?>
<!-- Generator: Adobe Illustrator 27.5.0, SVG Export Plug-In . SVG Version: 6.00 Build 0)  -->
<svg version="1.1" xmlns="http://www.w3.org/2000/svg" xmlns:xlink="http://www.w3.org/1999/xlink" x="0px" y="0px"
	 viewBox="0 0 3710 3710" style="enable-background:new 0 0 3710 3710;" xml:space="preserve">
<g id="Background">
	<g>
		<g>
			<rect style="fill:#FFFFFF;" width="3710" height="3710"/>
		</g>
	</g>
</g>
<g id="Illustration">
	<g>
		<path style="fill:#F4F7FA;" d="M1661.659,455.259C1273.788,462.11,673.677,609.585,500.943,988.57
			c-60.329,132.365-56.245,326.957-48.077,716.141c2.401,114.391,6.382,281.119,34.341,487.99
			c58.079,429.737,97.616,722.286,247.253,892.633c374.944,426.837,1729.334,414.503,2307.697-353.943
			c315.5-419.192,364.037-1015.507,75.55-1508.332C2800.088,680.468,2180.927,446.086,1661.659,455.259z"/>
		<g>
			<g>
				<defs>
					<path id="SVGID_1_" d="M2004.272,3003.994l227.488,132.133c0,0,110.604-91.823,102.691-206.559
						c-16.145-234.098,190.011-231.899,276.496-243.896c130.426-18.092,237.471-90.917,131.157-211.441
						c-106.314-120.524,144.852-247.893,359.7-246.755c210.243,1.115,333.542-371.974-121.282-416.168
						c-271.62-26.392-370.147,220.615-449.557,333.523c-79.41,112.908-261.981,20.022-285.83,200.445
						c-20.371,154.115,25.309,301.65-99.208,343.414C2021.408,2730.455,1958.096,2821.598,2004.272,3003.994z"/>
				</defs>
				
					<linearGradient id="SVGID_00000129887271968881276950000003283659233047775379_" gradientUnits="userSpaceOnUse" x1="65.8122" y1="2679.489" x2="1571.5284" y2="2679.489" gradientTransform="matrix(0.9631 -0.269 0.269 0.9631 1122.8268 92.7938)">
					<stop  offset="0" style="stop-color:#FFC444"/>
					<stop  offset="0.9964" style="stop-color:#F36F56"/>
				</linearGradient>
				
					<use xlink:href="#SVGID_1_"  style="overflow:visible;fill:url(#SVGID_00000129887271968881276950000003283659233047775379_);"/>
				<clipPath id="SVGID_00000005239789938758832340000011532940780215352225_">
					<use xlink:href="#SVGID_1_"  style="overflow:visible;"/>
				</clipPath>
				
					<linearGradient id="SVGID_00000118360764725000518350000004049788549323538825_" gradientUnits="userSpaceOnUse" x1="3077.5112" y1="1779.1619" x2="2146.0769" y2="3052.6494">
					<stop  offset="0" style="stop-color:#FCB148"/>
					<stop  offset="0.0521" style="stop-color:#FDBA46"/>
					<stop  offset="0.1424" style="stop-color:#FFC244"/>
					<stop  offset="0.3183" style="stop-color:#FFC444"/>
					<stop  offset="0.4849" style="stop-color:#FDB946"/>
					<stop  offset="0.7754" style="stop-color:#F99C4D"/>
					<stop  offset="0.8658" style="stop-color:#F8924F"/>
					<stop  offset="1" style="stop-color:#F8924F"/>
				</linearGradient>
				
					<path style="clip-path:url(#SVGID_00000005239789938758832340000011532940780215352225_);fill:url(#SVGID_00000118360764725000518350000004049788549323538825_);" d="
					M2004.272,3003.994l227.488,132.133c0,0,110.604-91.823,102.691-206.559c-16.145-234.098,190.011-231.899,276.496-243.896
					c130.426-18.092,222.602-85.81,148.936-207.256c-83.349-137.41,127.073-252.078,341.921-250.939
					c210.243,1.115,333.542-371.974-121.282-416.168c-271.62-26.392-370.147,220.615-449.557,333.523
					c-79.41,112.908-261.981,20.022-285.83,200.445c-20.371,154.115,25.309,301.65-99.208,343.414
					C2021.408,2730.455,1958.096,2821.598,2004.272,3003.994z"/>
				<g style="opacity:0.5;clip-path:url(#SVGID_00000005239789938758832340000011532940780215352225_);">
					<path style="fill:#BEB8F2;" d="M2090.466,3082.295l5.227,1.878c1.163-3.237,118.78-326.93,332.134-612.661
						c196.555-263.236,516.955-547.178,927.117-405l1.82-5.247c-182.585-63.292-362.859-48.868-535.818,42.87
						c-138.164,73.282-271.948,195.798-397.638,364.144C2209.486,2754.675,2091.633,3079.052,2090.466,3082.295z"/>
					<path style="fill:#BEB8F2;" d="M2750.327,2145.59l5.113,2.174c72.383-170.088,263.684-360.303,265.607-362.205l-3.903-3.952
						C3015.213,1783.519,2823.135,1974.506,2750.327,2145.59z"/>
					<path style="fill:#BEB8F2;" d="M2867.244,2087.625c220.171-6.822,343.144,129.24,344.358,130.615l4.16-3.677
						c-1.232-1.398-125.82-139.394-348.69-132.489L2867.244,2087.625z"/>
					<path style="fill:#BEB8F2;" d="M2298.521,2665.913c185.212-195.234,525.419-71.894,528.633-70.416l2.644-4.878
						c-3.017-1.75-348.45-125.497-535.306,71.472L2298.521,2665.913z"/>
					<path style="fill:#BEB8F2;" d="M2352.765,2569.108l5.273,1.753c54.205-162.943-45.391-354.573-46.404-356.491l-4.91,2.593
						C2307.726,2218.861,2406.218,2408.441,2352.765,2569.108z"/>
					<path style="fill:#BEB8F2;" d="M2115.322,3033.645c58.114-84.106,224.469-80.805,226.142-80.764l0.144-5.55
						c-6.953-0.182-171.027-3.432-230.854,83.157L2115.322,3033.645z"/>
					<path style="fill:#BEB8F2;" d="M2142.144,2956.617l5.204,1.941c28.255-75.732-31.308-212.977-50.882-258.076
						c-2.766-6.374-5.153-11.875-5.386-12.939l-5.442,1.108c0.306,1.506,1.883,5.167,5.733,14.042
						C2110.724,2747.284,2169.617,2882.983,2142.144,2956.617z"/>
				</g>
			</g>
			<g>
				
					<linearGradient id="SVGID_00000050630785748146282220000005441730245569144452_" gradientUnits="userSpaceOnUse" x1="960.9199" y1="933.3851" x2="418.8773" y2="2143.7705" gradientTransform="matrix(0.9631 -0.269 0.269 0.9631 1122.8268 92.7938)">
					<stop  offset="0" style="stop-color:#FF9085"/>
					<stop  offset="1" style="stop-color:#FB6FBB"/>
				</linearGradient>
				<path style="fill:url(#SVGID_00000050630785748146282220000005441730245569144452_);" d="M2356.27,2383.078
					c63.979,58.45,57.843,142.264,43.901,202.219c-7.815,2.875-11.578,6.521-18.793,11.155
					c-65.131,41.818-101.827,45.78-172.531,76.864c-15.219,6.69-65.861,12.743-86.711,13.887l-38.907,1.513
					c0,0-129.666-151.553-52.076-234.403s-27.3-242.409-72.45-333.787c-27.725-56.113-22.43-90.656-29.307-112.91
					c-72.803-235.568-167.871-277.8-144.489-368.946c25.812-100.618,149.057-77.952,182.919-185.924
					c38.236-121.922-93.242-232.681-31.275-339.973c10.624-18.395,22.04-37.006,44.707-54.01
					c55.949-41.97,120.734-24.483,146.205-92.989c51.196-137.7,186.127-229.227,317.546-154.056
					c129.703,74.19,105.671,323.878-93.6,589.599c-120.168,205.128-106.258,248.509-51.848,346.729
					c38.108,68.798,187.008,230.081,110.03,343.796C2332.614,2205.56,2283.129,2316.26,2356.27,2383.078z"/>
				<g>
					<defs>
						<path id="SVGID_00000179628257225097661190000002594995286256891326_" d="M2376.798,2660.526l-285.263,32.399
							c0,0-137.974-155.762-60.383-238.612c77.591-82.85-27.3-242.409-72.45-333.787
							c-122.503-247.932,186.802-333.163,57.095-664.151c-34.498-88.033-132.243-244.399-79.248-343.601
							c60.377-113.02,158.155-58.898,190.911-146.999c51.196-137.699,186.128-229.226,317.546-154.056
							c129.704,74.19,105.671,323.878-93.597,589.599c-120.17,205.13-106.257,248.509-51.849,346.729
							c38.11,68.798,187.008,230.083,110.03,343.797c-76.978,113.715-126.461,224.414-53.322,291.233
							C2467.559,2484.751,2376.798,2660.526,2376.798,2660.526z"/>
					</defs>
					<clipPath id="SVGID_00000103260243385202816610000010061328376049364406_">
						<use xlink:href="#SVGID_00000179628257225097661190000002594995286256891326_"  style="overflow:visible;"/>
					</clipPath>
					<g style="opacity:0.5;clip-path:url(#SVGID_00000103260243385202816610000010061328376049364406_);">
						<path style="fill:#FCFDFE;" d="M2247.709,2662.343l-5.539,1.306c-7.498-30.516-14.651-61.388-21.263-91.758
							c-48.934-224.867-73.408-446.404-72.738-658.464c0.569-179.684,19.155-355.092,55.242-521.352
							c29.021-133.705,69.467-262.247,120.215-382.054c35.677-84.222,76.035-163.292,119.962-235.009
							c7.652-12.499,16.219-24.902,24.504-36.897c11.039-15.981,22.454-32.506,31.79-49.388l5.036,2.321
							c-9.465,17.114-20.956,33.751-32.068,49.841c-8.245,11.935-16.768,24.276-24.344,36.649
							c-43.788,71.492-84.027,150.325-119.602,234.31c-50.624,119.51-90.971,247.747-119.926,381.144
							c-36.012,165.917-54.56,340.975-55.128,520.313c-0.67,211.702,23.767,432.886,72.627,657.405
							C2233.077,2601.038,2240.22,2631.866,2247.709,2662.343z"/>
						<path style="fill:#FCFDFE;" d="M2174.021,1596.707l-5.658-0.34c22.24-226.401-202.117-548.737-204.387-551.965l4.78-2.976
							C1971.036,1044.671,2196.438,1368.494,2174.021,1596.707z"/>
						<path style="fill:#FCFDFE;" d="M2171.357,2233.639l-5.679,0.274c-4.195-155.029,232.801-361.524,235.195-363.593l3.807,3.832
							C2402.305,1876.203,2167.227,2081.033,2171.357,2233.639z"/>
						<path style="fill:#FCFDFE;" d="M2181.918,2321.209l-5.565,1.2c-21.95-98.678-108.882-220.934-244.78-344.241
							c-6.834-6.201-6.834-6.201-7.065-7.175l5.551-1.265l-2.776,0.633l2.337-1.542c0.403,0.463,2.982,2.804,5.975,5.517
							C2072.268,2098.348,2159.748,2221.534,2181.918,2321.209z"/>
						<path style="fill:#FCFDFE;" d="M2234.878,2606.451l-5.658-0.321c10.458-111.406,158.194-207.278,159.683-208.233l3.139,4.327
							C2390.574,2403.166,2245.099,2497.596,2234.878,2606.451z"/>
						<path style="fill:#FCFDFE;" d="M2239.784,2665.644c-52.244-74.43-129.572-136.766-236.401-190.568l2.807-4.666
							c107.649,54.217,185.622,117.107,238.375,192.262L2239.784,2665.644z"/>
						<path style="fill:#FCFDFE;" d="M2300.247,1082.832l-5.618-0.636c19.889-125.42,9.649-260.702,6.283-305.156
							c-0.814-10.761-1.088-14.55-0.936-15.891l5.649,0.417c-0.102,1.025,0.365,7.176,0.955,14.965
							C2309.956,821.126,2320.228,956.839,2300.247,1082.832z"/>
						<path style="fill:#FCFDFE;" d="M2235.605,1283.104l-5.125-2.153c54.917-108.205,295.317-192.265,305.524-195.791l1.851,4.951
							C2535.379,1090.966,2289.498,1176.92,2235.605,1283.104z"/>
					</g>
				</g>
			</g>
			<g>
				
					<linearGradient id="SVGID_00000105407142278466322280000012466178506898254777_" gradientUnits="userSpaceOnUse" x1="3872.7798" y1="1844.9836" x2="4866.8638" y2="3481.502" gradientTransform="matrix(-0.9821 0.1885 0.1885 0.9821 6215.2192 -1423.8668)">
					<stop  offset="0" style="stop-color:#AA80F9"/>
					<stop  offset="0.9964" style="stop-color:#6165D7"/>
				</linearGradient>
				<path style="fill:url(#SVGID_00000105407142278466322280000012466178506898254777_);" d="M2403.364,2861.761
					c-19.641,1.273-63.963,188.095-144.201,72.217c-20.046-28.95-57.05-135.341-200.058-112.94
					c-27.76,4.348-55.522,8.694-83.281,13.042c-35.69-57.352-58.701-118.018,20.373-157.904
					c122.8-61.94,81.026-278.796,29.369-348.398c-63.934-86.147-208.417-289.658-20.142-388.222
					c156.738-82.057,275.373-104.902,244.935-309.938c-30.439-205.038,60.698-354.203,258.311-379.783
					c207.957-26.918,322.79-317.008,508.907-263.294c324.296,93.599,151.622,591.696-177.933,789.921
					c-329.552,198.225-99.921,279.848-55.821,443.938c3.23,15.465,7.047,39.689,6.123,69.136
					c-5.689,181.293-181.246,246.255-283.463,413.545C2367.078,2931.229,2436.453,2859.617,2403.364,2861.761z"/>
				<g>
					<defs>
						<path id="SVGID_00000085220637890123106170000004807413819575487374_" d="M2449.235,2796.815l-448.064,82.993
							c-38.008-54.954-93.302-159.078-4.974-203.63c122.801-61.942,81.026-278.797,29.37-348.4
							c-63.935-86.146-208.417-289.658-20.141-388.224c156.737-82.056,275.372-104.9,244.933-309.937
							c-30.438-205.037,60.699-354.203,258.312-379.782c207.956-26.919,322.789-317.009,508.906-263.293
							c324.298,93.597,151.621,591.692-177.931,789.919c-329.553,198.226-99.923,279.847-55.822,443.939
							c60.207,224.021-274.793,238.302-342.129,343.863C2388.905,2647.017,2421.396,2740.888,2449.235,2796.815z"/>
					</defs>
					<clipPath id="SVGID_00000028293496386600315800000013738004618586973357_">
						<use xlink:href="#SVGID_00000085220637890123106170000004807413819575487374_"  style="overflow:visible;"/>
					</clipPath>
					<g style="opacity:0.5;clip-path:url(#SVGID_00000028293496386600315800000013738004618586973357_);">
						<path style="fill:#FCFDFE;" d="M2225.031,2769.456l-9.879-0.001c6.365-681.914,363.207-1360.372,931.274-1770.608l5.958,7.392
							C2586.711,1414.747,2231.369,2090.374,2225.031,2769.456z"/>
						<path style="fill:#FCFDFE;" d="M2262.23,2397.685l-9.701,1.841c-53.595-262.732-333.993-422.302-336.82-423.883l5.089-8.035
							C1923.662,1969.206,2207.788,2130.812,2262.23,2397.685z"/>
						<path style="fill:#FCFDFE;" d="M2229.824,2644.014l-9.423-2.724c86.356-259.854,593.037-390.347,598.145-391.634l2.473,9.011
							C2815.966,2259.941,2314.538,2389.101,2229.824,2644.014z"/>
						<path style="fill:#FCFDFE;" d="M2490.677,1763.262l-9.646-1.949c49.667-210.761-145.414-483.615-147.389-486.347l8.168-5.309
							C2343.812,1272.422,2541.263,1548.607,2490.677,1763.262z"/>
						<path style="fill:#FCFDFE;" d="M2737.185,1396.084l-6.673-6.828c191.9-167.32,543.164-161.554,546.695-161.472l-0.314,9.326
							C3273.407,1237.026,2926.093,1231.368,2737.185,1396.084z"/>
					</g>
				</g>
			</g>
		</g>
		<g>
			<g>
				
					<linearGradient id="SVGID_00000128449554825597503690000015747129655558905534_" gradientUnits="userSpaceOnUse" x1="1437.9983" y1="1894.1477" x2="974.3206" y2="1944.7305">
					<stop  offset="0" style="stop-color:#444B8C"/>
					<stop  offset="0.9964" style="stop-color:#26264F"/>
				</linearGradient>
				<path style="fill:url(#SVGID_00000128449554825597503690000015747129655558905534_);" d="M1991.653,725.93l282.48,2347.923
					c4.235,35.204-20.029,66.761-54.018,70.134l-1176.567,129.17c-72.076,4.483-111.539-32.34-115.987-69.774L630.99,707.148
					c-4.423-37.226,30.938-70.938,103.321-70.938l1187.272,25.006C1955.953,661.791,1987.439,690.911,1991.653,725.93z"/>
				
					<linearGradient id="SVGID_00000059292417787628266190000001535016096135310014_" gradientUnits="userSpaceOnUse" x1="1846.5422" y1="725.3555" x2="700.0015" y2="4628.6621">
					<stop  offset="0" style="stop-color:#444B8C"/>
					<stop  offset="0.9964" style="stop-color:#26264F"/>
				</linearGradient>
				<path style="fill:url(#SVGID_00000059292417787628266190000001535016096135310014_);" d="M2044.606,721.889l284.032,2359.667
					c4.259,35.381-20.087,67.102-54.201,70.498l-1219.771,121.441c-38.242,3.807-73.288-23.857-77.761-61.485L678.667,702.878
					c-4.447-37.417,23.642-67.494,62.302-66.842l1233.291,20.809C2008.759,657.427,2040.37,686.695,2044.606,721.889z"/>
				
					<linearGradient id="SVGID_00000160901023263078912010000011775639345638729121_" gradientUnits="userSpaceOnUse" x1="1567.2821" y1="399.2916" x2="1426.9463" y2="4300.6484">
					<stop  offset="0" style="stop-color:#FF9085"/>
					<stop  offset="1" style="stop-color:#FB6FBB"/>
				</linearGradient>
				<path style="fill:url(#SVGID_00000160901023263078912010000011775639345638729121_);" d="M2021.462,852.046l263.26,2187.879
					c3.977,33.055-18.823,62.635-50.755,65.74l-1147.153,111.512c-35.55,3.456-68.128-22.367-72.293-57.391L738.906,841.928
					c-4.144-34.843,21.933-63.034,57.843-62.652l1158.926,12.341C1987.939,791.961,2017.503,819.152,2021.462,852.046z"/>
				
					<linearGradient id="SVGID_00000088820835893802491790000001030063484513881484_" gradientUnits="userSpaceOnUse" x1="1416.9064" y1="629.2139" x2="69.4092" y2="4278.6851">
					<stop  offset="0" style="stop-color:#311944"/>
					<stop  offset="1" style="stop-color:#893976"/>
				</linearGradient>
				<path style="fill:url(#SVGID_00000088820835893802491790000001030063484513881484_);" d="M1406.297,720.268
					c1.504,12.561-7.511,22.616-20.148,22.457c-12.652-0.159-24.138-10.493-25.643-23.079c-1.506-12.587,7.542-22.641,20.195-22.455
					C1393.341,697.375,1404.795,707.707,1406.297,720.268z"/>
				<g style="opacity:0.5;">
					<path style="fill:#FFFFFF;" d="M1823.129,2320.689c-234.848-434.2-585.674-564.167-691.3-1011.658
						c-57.095-241.887-18.195-473.404,47.323-665.602l-438.184-7.394c-38.66-0.652-66.748,29.424-62.3,66.842l298.237,2509.135
						c4.472,37.627,39.518,65.292,77.761,61.484l958.859-95.465C2020.616,2788.972,1927.814,2514.236,1823.129,2320.689z"/>
				</g>
			</g>
			<g style="opacity:0.63;">
				<path style="fill:#FFFFFF;" d="M2013.179,2067.355l-930.624,37.19c-26.393,1.055-49.365-17.887-53.358-43.998l-0.72-4.704
					c-4.694-30.692,18.44-58.607,49.469-59.694l931.32-32.637c26.3-0.922,49.125,17.993,53.103,44.007l0.023,0.151
					C2067.071,2038.262,2044.1,2066.12,2013.179,2067.355z"/>
				<path style="fill:#FFFFFF;" d="M2040.638,2244.039l-929.434,44.97c-26.549,1.284-49.775-17.704-53.793-43.978l-0.734-4.8
					c-4.667-30.52,18.189-58.336,49.034-59.677l930.13-40.417c26.458-1.15,49.535,17.812,53.538,43.99l0.038,0.247
					C2094.069,2214.792,2071.374,2242.552,2040.638,2244.039z"/>
				<path style="fill:#FFFFFF;" d="M2068.097,2420.714l-928.244,52.751c-26.704,1.518-50.186-17.515-54.23-43.955l-0.748-4.889
					c-4.641-30.347,17.939-58.065,48.598-59.656l928.941-48.197c26.614-1.381,49.945,17.626,53.974,43.969l0.051,0.335
					C2121.065,2391.319,2098.646,2418.979,2068.097,2420.714z"/>
			</g>
		</g>
		<g>
			
				<linearGradient id="SVGID_00000136378812439722573640000001697743685955482526_" gradientUnits="userSpaceOnUse" x1="1323.4196" y1="1274.5852" x2="623.2094" y2="1499.3038">
				<stop  offset="0" style="stop-color:#FCB148"/>
				<stop  offset="0.0521" style="stop-color:#FDBA46"/>
				<stop  offset="0.1424" style="stop-color:#FFC244"/>
				<stop  offset="0.3183" style="stop-color:#FFC444"/>
				<stop  offset="0.4849" style="stop-color:#FDB946"/>
				<stop  offset="0.7754" style="stop-color:#F99C4D"/>
				<stop  offset="0.8658" style="stop-color:#F8924F"/>
				<stop  offset="1" style="stop-color:#F8924F"/>
			</linearGradient>
			<path style="fill:url(#SVGID_00000136378812439722573640000001697743685955482526_);" d="M2129.51,1249.178
				c0,324.836-254.002,580.368-578.646,570.4c-337.857-10.375-622.007-302.166-622.007-651.344
				c0-349.177,284.149-602.655,622.007-567.475C1875.508,634.562,2129.51,924.342,2129.51,1249.178z"/>
			
				<linearGradient id="SVGID_00000121238596011566310310000007331432835175219134_" gradientUnits="userSpaceOnUse" x1="1889.8486" y1="577.5961" x2="1264.744" y2="1956.6936">
				<stop  offset="0" style="stop-color:#FFDB44"/>
				<stop  offset="1" style="stop-color:#FEEF06"/>
			</linearGradient>
			<path style="fill:url(#SVGID_00000121238596011566310310000007331432835175219134_);" d="M2217.236,1221.169
				c0,324.836-254.003,580.368-578.646,570.399c-337.858-10.375-622.008-302.165-622.008-651.343
				c0-349.179,284.15-602.656,622.008-567.475C1963.233,606.553,2217.236,896.333,2217.236,1221.169z"/>
			
				<linearGradient id="SVGID_00000044884293876997054730000011051719215952799900_" gradientUnits="userSpaceOnUse" x1="1774.8605" y1="2033.7722" x2="1654.2452" y2="1374.8552">
				<stop  offset="0" style="stop-color:#FCB148"/>
				<stop  offset="0.0521" style="stop-color:#FDBA46"/>
				<stop  offset="0.1424" style="stop-color:#FFC244"/>
				<stop  offset="0.3183" style="stop-color:#FFC444"/>
				<stop  offset="0.4849" style="stop-color:#FDB946"/>
				<stop  offset="0.7754" style="stop-color:#F99C4D"/>
				<stop  offset="0.8658" style="stop-color:#F8924F"/>
				<stop  offset="1" style="stop-color:#F8924F"/>
			</linearGradient>
			<path style="fill:url(#SVGID_00000044884293876997054730000011051719215952799900_);" d="M2191.754,1219.451
				c0,310.532-243.033,554.398-553.164,544.357c-322.168-10.432-592.661-288.9-592.661-621.605s270.493-574.7,592.661-541.693
				C1948.721,632.284,2191.754,908.919,2191.754,1219.451z"/>
			
				<linearGradient id="SVGID_00000129189731132742203730000005272621244040021939_" gradientUnits="userSpaceOnUse" x1="1519.1332" y1="967.2424" x2="2016.2046" y2="2022.4303">
				<stop  offset="0" style="stop-color:#FCB148"/>
				<stop  offset="0.0521" style="stop-color:#FDBA46"/>
				<stop  offset="0.1424" style="stop-color:#FFC244"/>
				<stop  offset="0.3183" style="stop-color:#FFC444"/>
				<stop  offset="0.4849" style="stop-color:#FDB946"/>
				<stop  offset="0.7754" style="stop-color:#F99C4D"/>
				<stop  offset="0.8658" style="stop-color:#F8924F"/>
				<stop  offset="1" style="stop-color:#F8924F"/>
			</linearGradient>
			<path style="fill:url(#SVGID_00000129189731132742203730000005272621244040021939_);" d="M2173.504,1218.221
				c0,300.287-235.165,535.821-534.914,525.758c-310.98-10.441-571.761-279.395-571.761-600.366s260.781-554.763,571.761-523.274
				C1938.339,650.692,2173.504,917.935,2173.504,1218.221z"/>
			<g>
				
					<linearGradient id="SVGID_00000087401661182331748440000007705363077374892964_" gradientUnits="userSpaceOnUse" x1="1499.3295" y1="740.1797" x2="1749.274" y2="1676.9281">
					<stop  offset="0" style="stop-color:#FFDB44"/>
					<stop  offset="1" style="stop-color:#FEEF06"/>
				</linearGradient>
				<path style="fill:url(#SVGID_00000087401661182331748440000007705363077374892964_);" d="M1635.52,722.497L1635.52,722.497
					c15.952,1.517,28.862,15.876,28.862,32.075v55.287c31.894,3.561,63.835,9.106,95.821,16.623
					c23.584,5.543,47.009,12.141,70.277,19.791c13.942,4.584,23.442,18.66,22.02,33.178l-6.79,69.329
					c-1.802,18.394-19.984,29.195-37.101,21.563c-15.327-6.835-31.04-12.69-47.146-17.563c-28.103-8.503-57.74-14.047-88.927-16.618
					l-8.154-0.671v158.336c83.209,23.28,144.319,54.599,183.811,93.991c39.302,39.203,58.883,88.063,58.883,146.718
					c0,63.431-21.649,114.222-65.119,152.529c-43.702,38.51-104.974,60.17-184.208,64.859v61.022
					c0,16.206-12.92,28.83-28.885,28.195l-0.511-0.02c-15.997-0.636-28.987-14.336-28.987-30.598v-60.196l-12.859-0.58
					c-37.144-1.676-72.723-5.465-106.716-11.377c-25.175-4.38-49.758-10.031-73.746-16.961c-14.507-4.19-24.466-18.01-23.135-32.857
					l7.989-89.12c1.727-19.266,21.079-30.477,39.399-23.25c21.354,8.423,42.974,15.518,64.859,21.29
					c34.103,8.994,68.67,14.762,103.695,17.324l0.514-176.128c-79.872-19.764-139.671-49.037-178.959-87.811
					c-39.472-38.957-59.277-88.813-59.277-149.43c0-62.731,21.476-111.153,64.264-145.137
					c42.571-33.812,103.089-50.633,181.164-50.591v-56.523C1606.558,732.92,1619.537,720.977,1635.52,722.497z M1606.558,933.852
					c-24.685,1.796-43.935,8.575-57.712,20.347c-13.8,11.792-20.708,27.64-20.708,47.529c0,18.842,6.391,34.592,19.157,47.235
					c12.747,12.623,32.518,22.702,59.263,30.233V933.852z M1657.75,1252.783v161.516c26.834,0.053,47.412-6.354,61.776-19.203
					c14.34-12.827,21.5-30.944,21.5-54.369c0-21.359-6.655-39.072-19.981-53.159
					C1707.698,1273.459,1686.619,1261.866,1657.75,1252.783z"/>
			</g>
			
				<linearGradient id="SVGID_00000013895953993920591040000008234997391529655731_" gradientUnits="userSpaceOnUse" x1="1372.8964" y1="1035.5289" x2="1868.9648" y2="2088.5879">
				<stop  offset="0" style="stop-color:#FCB148"/>
				<stop  offset="0.0521" style="stop-color:#FDBA46"/>
				<stop  offset="0.1424" style="stop-color:#FFC244"/>
				<stop  offset="0.3183" style="stop-color:#FFC444"/>
				<stop  offset="0.4849" style="stop-color:#FDB946"/>
				<stop  offset="0.7754" style="stop-color:#F99C4D"/>
				<stop  offset="0.8658" style="stop-color:#F8924F"/>
				<stop  offset="1" style="stop-color:#F8924F"/>
			</linearGradient>
			<path style="opacity:0.3;fill:url(#SVGID_00000013895953993920591040000008234997391529655731_);" d="M1541.79,1291.756
				c18.073-178.499,182.121-254.064,160.713-418.255c-13.195-101.198-89.897-186.482-175.461-253.072
				c-259.528,27.218-460.214,242.115-460.214,523.184c0,320.972,260.782,589.925,571.761,600.366
				c30.194,1.013,59.683-0.556,88.357-4.315C1603.444,1616.769,1526.264,1445.109,1541.79,1291.756z"/>
		</g>
		<g>
			<g>
				<g>
					
						<linearGradient id="SVGID_00000029762781686936370890000012771845529590098061_" gradientUnits="userSpaceOnUse" x1="1864.3337" y1="1516.8774" x2="1866.6727" y2="1417.4727">
						<stop  offset="0" style="stop-color:#311944"/>
						<stop  offset="1" style="stop-color:#893976"/>
					</linearGradient>
					<path style="fill:url(#SVGID_00000029762781686936370890000012771845529590098061_);" d="M1881.213,1376.522
						c4.81-7.454,13.587-23.318,14.148-44.622c1.091-41.396-29.612-73.683-33.739-71.83c-2.224,0.999,0.597,13.127,2.177,18.502
						c3.289,11.192,6.826,12.273,6.529,17.413c-0.609,10.582-15.885,10.99-23.943,25.032c-5.802,10.113-6.265,24.516,0,35.915
						C1856.782,1375.844,1880.224,1376.51,1881.213,1376.522z"/>
					
						<linearGradient id="SVGID_00000074412019236637181070000001641872994829461162_" gradientUnits="userSpaceOnUse" x1="2547.4578" y1="2409.4504" x2="2562.6611" y2="2239.8774">
						<stop  offset="0" style="stop-color:#311944"/>
						<stop  offset="1" style="stop-color:#893976"/>
					</linearGradient>
					<polygon style="fill:url(#SVGID_00000074412019236637181070000001641872994829461162_);" points="2537.059,2275.643 
						2525.258,2235.034 2574.526,2198.526 2605.235,2187.044 2587.052,2243.862 					"/>
					
						<linearGradient id="SVGID_00000052822420900545435980000014732885607424352443_" gradientUnits="userSpaceOnUse" x1="2505.656" y1="3063.1536" x2="2519.6897" y2="3322.7756">
						<stop  offset="0" style="stop-color:#311944"/>
						<stop  offset="1" style="stop-color:#893976"/>
					</linearGradient>
					<path style="fill:url(#SVGID_00000052822420900545435980000014732885607424352443_);" d="M2476.072,3093.512
						c0,0,26.948,67.792,19.857,97.859c28.932-0.567,47.652-4.254,47.652-4.254s-11.629-30.918-13.898-46.235
						c-3.066-20.694-2.837-54.177-2.837-54.177L2476.072,3093.512z"/>
					<path style="fill:#26264F;" d="M2179.021,3252.072c1.743,2.103,4.835,6.499,5.094,12.455c0.141,3.235-0.598,5.897-1.528,8.344
						c-4.595,12.091-11.812,13.686-19.599,26.516c-4.757,7.839-3.859,10.203-8.219,13.741c-5.746,4.664-12.696,4.931-18.72,5
						c-10.18,0.118-24.838-0.246-43.293-2.446c9.672-12.464,19.956-25.126,30.894-37.912c4.797-5.605,9.586-11.081,14.362-16.427
						l28.435-9.608C2170.638,3251.848,2174.83,3251.961,2179.021,3252.072z"/>
					
						<linearGradient id="SVGID_00000049916583103792949480000015246251376371318461_" gradientUnits="userSpaceOnUse" x1="2124.0447" y1="3083.7813" x2="2138.0786" y2="3343.4028">
						<stop  offset="0" style="stop-color:#311944"/>
						<stop  offset="1" style="stop-color:#893976"/>
					</linearGradient>
					<path style="fill:url(#SVGID_00000049916583103792949480000015246251376371318461_);" d="M2155.375,3114.019
						c0,0-16.254,84.807,4.428,108.555c17.618,23.746-8.51,6.807-8.51,6.807l-31.202,27.231l-18.719,32.337
						c0,0,17.232-83.005,12.636-115.944c-4.595-32.939-6.894-55.154-6.894-55.154L2155.375,3114.019z"/>
					
						<linearGradient id="SVGID_00000094603146406707162340000005310885728941716411_" gradientUnits="userSpaceOnUse" x1="800.8647" y1="2658.147" x2="1287.4957" y2="2658.147" gradientTransform="matrix(1 0 0 1 1249.563 0)">
						<stop  offset="0" style="stop-color:#311944"/>
						<stop  offset="1" style="stop-color:#893976"/>
					</linearGradient>
					<path style="fill:url(#SVGID_00000094603146406707162340000005310885728941716411_);" d="M2094.093,2186.359
						c0,0-43.665,39.067-43.665,199.933c0,160.866,20.683,510.175,20.683,510.175l33.097,250.087c0,0,34.316,1.221,57.298-5.672
						c20.682-94.222,54.385-253.607,38.297-386.896c-6.893-144.78,57.453-326.329,57.453-326.329s55.154,183.847,94.222,275.772
						c39.067,91.922,113.448,379.895,120.341,400.579c45.715,4.143,65.24-7.944,65.24-7.944s-29.312-309.906-56.888-427.108
						c-27.577-117.202-25.28-399.866-71.242-480.3C2305.516,2147.291,2094.093,2186.359,2094.093,2186.359z"/>
					
						<linearGradient id="SVGID_00000155146043836538527920000002365311986392470427_" gradientUnits="userSpaceOnUse" x1="785.3993" y1="2295.3906" x2="1135.9896" y2="2884.2471" gradientTransform="matrix(1 0 0 1 1249.563 0)">
						<stop  offset="0" style="stop-color:#311944"/>
						<stop  offset="1" style="stop-color:#893976"/>
					</linearGradient>
					<path style="fill:url(#SVGID_00000155146043836538527920000002365311986392470427_);" d="M2094.094,2186.359
						c0,0-43.667,39.067-43.667,199.933c0,160.866,20.684,510.175,20.684,510.175l33.097,250.087c0,0,34.316,1.221,57.298-5.672
						c20.684-94.222,54.385-253.607,38.3-386.896c-6.894-144.78,57.451-326.329,57.451-326.329s55.154,183.847,94.222,275.772
						c39.067,91.922,113.448,379.896,120.342,400.579c45.713,4.143,65.239-7.944,65.239-7.944s-29.313-309.906-56.888-427.108
						c-27.578-117.202-25.28-399.866-71.24-480.301C2305.517,2147.291,2094.094,2186.359,2094.094,2186.359z"/>
					
						<linearGradient id="SVGID_00000011005611487313339830000017627247720999494293_" gradientUnits="userSpaceOnUse" x1="923.4173" y1="2213.218" x2="1274.0076" y2="2802.0747" gradientTransform="matrix(1 0 0 1 1249.563 0)">
						<stop  offset="0" style="stop-color:#311944"/>
						<stop  offset="1" style="stop-color:#893976"/>
					</linearGradient>
					<path style="opacity:0.25;fill:url(#SVGID_00000011005611487313339830000017627247720999494293_);" d="M2320.917,2481.111
						c13.615,88.5,40.845,136.154,108.921,197.422c54.46,40.845,13.616,129.344,34.039,197.42
						c6.806,20.422,27.23,40.844,34.038,61.268c25.332,50.666,1.672,112.64,13.158,166.284c17.875-2.469,25.986-7.441,25.986-7.441
						s-29.313-309.906-56.888-427.108c-27.578-117.202-25.28-399.867-71.24-480.301c-103.413-41.365-314.837-2.297-314.837-2.297
						s-43.667,39.067-43.667,199.933c0,13.053,0.14,27.36,0.39,42.607c45.33,40.117,138.04,49.031,195.217,4.562
						c3.454-2.591,7.13-4.179,10.927-4.951c0.175-0.508,0.296-0.852,0.296-0.852s0.095,0.319,0.24,0.797
						C2283.519,2423.706,2315.013,2457.496,2320.917,2481.111z"/>
					<g>
						<path style="fill:#26264F;" d="M2488.84,3217.097c0,0-6.715,0-6.157,8.676c0.562,8.674-3.023,38.517,31.116,39.915
							c34.14,1.399,39.405-2.417,40.525-2.417c1.119,0-8.956-28.545-8.956-28.545l-10.914-13.99l-29.384-3.078L2488.84,3217.097z"/>
						<path style="fill:#444B8C;" d="M2564.539,3247.051c-0.729-7.206-4.76-18.55-8.817-27.678
							c-6.027-13.561-1.079-18.635-6.84-30.986c-1.991-4.271-3.928-8.32-8.136-12.334c-0.969-0.923-10.389-9.628-24.108-9.186
							c-2.7,0.087-6.857,0.269-11.35,2.663c-5.293,2.821-7.945,7.059-10.211,10.779c-3.56,5.847-2.742,7.64-8.225,24.394
							c-0.442,1.344-1.407,4.268-2.149,8.302c-0.569,3.086-0.798,5.679-0.9,7.45c8.955,0,43.376,1.4,50.65,6.716
							c7.277,5.317,10.914,14.272,10.914,23.228c0,8.954,4.478,13.152,8.956,12.873
							C2558.323,3263.02,2566.27,3255.613,2564.539,3247.051z"/>
					</g>
					<path style="fill:#444B8C;" d="M2151.01,3210.659c7.69,0.121,13.332,6.24,17.586,20.99c4.256,14.75,24.678,27.798,0.853,24.678
						c-23.827-3.12-41.131,30.633-49.639,43.116c-8.511,12.48-31.353,23.568-30.786,11.372
						c0.567-12.197,10.646-17.897,13.482-30.377C2105.342,3267.956,2133.469,3210.385,2151.01,3210.659z"/>
					<path style="fill:#FFFFFF;" d="M2555.14,2205.774c5.655-15.72,40.942-118.98-16.092-213.152
						c-46.691-77.092-127.482-102.243-139.002-105.645c-70.125-20.709-105.271,5.896-127.397-18.59
						c-37.546-41.551,4.985-183.085,87.252-211.436c92.733-31.956,203.979,90.923,249.061,171.631
						c59.142,105.886,44.585,211.124,41.163,232.799c-8.893,56.323-29.568,99.284-44.89,125.661
						C2588.537,2193.287,2571.838,2199.531,2555.14,2205.774z"/>
					<path style="fill:#FFFFFF;" d="M2312.975,1636.972c-82.776-3.311-146.611-1.999-182.671,34.037
						c-38.087,38.062,0.403,81.031-7.867,180.594c-12.661,152.428-109.793,189.67-117.102,344.31
						c-2.464,52.104,6.354,94.692,13.202,120.339c21.317,26.548,56.208,64.013,107.7,95.34
						c74.93,45.588,118.383,37.64,225.994,67.091c176.021,48.174,191.681,105.543,278.962,90.927
						c88.21-14.772,165.602-89.005,156.254-129.77c-5.6-24.413-41.158-17.497-82.099-54.733
						c-52.766-47.988-32.417-93.796-72.534-145.365c-57.623-74.072-137.902-28.791-187.007-92.987
						c-49.671-64.94-29.969-192.905,11.901-262.657c27.348-45.558,39.059-98.948,62.331-146.717
						c1.933-3.968,4.178-10.477,3.19-18.613c-3.777-31.111-55.637-47.986-94.915-60.366
						C2368.406,1639.523,2319.783,1637.242,2312.975,1636.972z"/>
					
						<linearGradient id="SVGID_00000008151226176131378620000003033184525763924904_" gradientUnits="userSpaceOnUse" x1="1013.5494" y1="1566.1224" x2="1085.4125" y2="1680.3438" gradientTransform="matrix(1 0 0 1 1249.563 0)">
						<stop  offset="0.0036" style="stop-color:#E38DDD"/>
						<stop  offset="1" style="stop-color:#9571F6"/>
					</linearGradient>
					<path style="fill:url(#SVGID_00000008151226176131378620000003033184525763924904_);" d="M2243.253,1633.548l16.325-5.023
						c0,0,4.27,22.102,56.762,24.864c29.134,0,47.971-16.324,47.971-16.324l11.154,8.131c0,0-24.473,30.571-63.394,29.793
						C2261.839,1673.986,2243.253,1633.548,2243.253,1633.548z"/>
					<g>
						
							<linearGradient id="SVGID_00000000901412704489736020000009159958472196248504_" gradientUnits="userSpaceOnUse" x1="4279.0063" y1="3709.8169" x2="4107.0947" y2="3595.7942" gradientTransform="matrix(1 0 0 1 1249.563 0)">
							<stop  offset="0" style="stop-color:#311944"/>
							<stop  offset="1" style="stop-color:#893976"/>
						</linearGradient>
						<path style="fill:url(#SVGID_00000000901412704489736020000009159958472196248504_);" d="M2276.496,1566.315
							c3.146-24.276,22.336-39.828,26.523-43.158c17.532-13.936,21.101-15.338,27.123-16.483l8.223-1.246
							c0,0,0.443,0.011,0.898,0.038c4.814,0.292,19.243,5.923,21.866,7.767c8.38,5.894,2.209,47.629-23.196,99.536
							c-0.999,4.395-1.997,8.791-2.998,13.186c22.143,3.892,27.627,7.886,27.802,11.076c0.378,6.909-23.866,15.724-46.335,16.297
							c-28.177,0.719-58.095-11.404-57.522-20.452c0.231-3.662,5.546-8.18,26.005-12.615c3.199-4.495,6.394-8.99,9.591-13.486
							C2291.575,1603.256,2274.179,1584.198,2276.496,1566.315z"/>
						
							<linearGradient id="SVGID_00000163040937941851553710000006315121428910221481_" gradientUnits="userSpaceOnUse" x1="2766.8477" y1="2564.1304" x2="2594.9351" y2="2450.1069" gradientTransform="matrix(0.9717 -0.2361 0.2361 0.9717 1534.775 640.4756)">
							<stop  offset="0" style="stop-color:#311944"/>
							<stop  offset="1" style="stop-color:#893976"/>
						</linearGradient>
						<path style="fill:url(#SVGID_00000163040937941851553710000006315121428910221481_);" d="M2311.326,1557.175
							c6.391-3.825,11.259,4.397,8.249,11.583c-3.01,7.186-13.126,11.682-19.262,7.397
							C2294.177,1571.871,2302.727,1562.321,2311.326,1557.175z"/>
						
							<linearGradient id="SVGID_00000103223531665867247920000017097752912374219430_" gradientUnits="userSpaceOnUse" x1="2298.4373" y1="1002.9163" x2="2960.3267" y2="2054.9436">
							<stop  offset="0" style="stop-color:#444B8C"/>
							<stop  offset="0.9964" style="stop-color:#26264F"/>
						</linearGradient>
						<path style="fill:url(#SVGID_00000103223531665867247920000017097752912374219430_);" d="M3139.677,1557.053
							c-84.123-91.287-279.86-66.253-388.427,7.062c-50.448,34.068-76.34,74.308-135.949,77.685
							c-45.315,2.568-117.405-14.471-155.371-63.56c-4.783-6.184-23.913-32.122-52.64-64.831
							c-12.665-14.419-25.259-27.951-44.782-31.011c-4.959-0.777-21.458-3.462-32.366,7.193
							c-8.839,8.633-11.007,23.646-8.394,34.466c1.565,6.47,3.587,7.152,3.298,11.388c-0.81,11.9-22.485,17.083-21.278,23.077
							c0.861,4.282,12.143,2.715,14.086,8.09c2.129,5.891-10.261,10.96-15.584,25.774c-9.973,6.677-16.274,23.29-18.455,45.521
							c-3.204,32.679,0.079,59.233,6.271,79.232c29.813,96.288,51.14,165.161,102.752,203.622
							c68.331,50.919,129.86,3.905,303.68-3.531c238.01-10.181,297.353,70.495,382.896,15.304
							C3186.227,1863.621,3227.021,1651.83,3139.677,1557.053z"/>
					</g>
					<path style="fill:#FFFFFF;" d="M1891.27,1370.724c-2.122,19.915-9.301,108.011,51.465,182.396
						c56.78,69.504,137.193,83.387,152.139,85.646c72.3,10.925,103.48-20.235,128.745,0.997
						c42.874,36.027,20.093,182.047-57.525,221.379c-87.492,44.336-214.496-62.178-270.187-135.966
						c-73.067-96.804-73.035-203.044-72.609-224.983c1.107-57.01,15.715-102.395,27.285-130.619
						c4.753-1.431,11.987-3.014,20.857-2.706C1879.894,1367.163,1886.715,1369.065,1891.27,1370.724z"/>
					
						<linearGradient id="SVGID_00000140711645897716277580000011661893976580741284_" gradientUnits="userSpaceOnUse" x1="2045.0342" y1="1689.2858" x2="2421.0732" y2="2462.55">
						<stop  offset="0.0036" style="stop-color:#E38DDD"/>
						<stop  offset="1" style="stop-color:#9571F6"/>
					</linearGradient>
					<path style="opacity:0.3;fill:url(#SVGID_00000140711645897716277580000011661893976580741284_);" d="M2633.84,2511.347
						c-21.165-21.699,2.134-65.458-29.132-97.99c-29.016-30.193-61.869-5.801-108.582-31.779
						c-59.916-33.322-43.406-94.326-100.639-127.123c-41.156-23.584-60.495,1.773-124.473-10.593
						c-63.87-12.344-141.662-56.377-180.089-135.067c-16.328-33.436-22.346-66.675-23.145-96.387
						c-28.726,51.321-58.521,100.505-62.445,183.505c-2.464,52.104,6.354,94.692,13.202,120.338
						c21.317,26.548,56.208,64.014,107.7,95.34c74.93,45.589,118.383,37.641,225.994,67.092
						c176.021,48.174,191.681,105.543,278.962,90.927c56.376-9.44,108.21-43.167,135.929-76.923
						C2685.773,2528.9,2649.201,2527.096,2633.84,2511.347z"/>
				</g>
			</g>
		</g>
		<g>
			
				<linearGradient id="SVGID_00000093139363207742670250000017142002565889883291_" gradientUnits="userSpaceOnUse" x1="1314.0162" y1="2166.0146" x2="876.0389" y2="3001.7476">
				<stop  offset="0" style="stop-color:#AA80F9"/>
				<stop  offset="0.9964" style="stop-color:#6165D7"/>
			</linearGradient>
			<path style="fill:url(#SVGID_00000093139363207742670250000017142002565889883291_);" d="M829.104,3245.592
				c-51.074-4.052-116.416-18.245-179.132-59.247c-67.856-44.361-156.234-135.53-133.166-192.977
				c8.612-21.447,33.408-39.812,55.204-38.062c32.201,2.585,35.95,47.313,91.866,95.964c10.334,8.991,63.761,55.477,90.323,39.813
				c13.205-7.787,17.11-29.366,14.956-45.772c-6.297-47.97-64.866-55.336-121.17-107.265
				c-57.084-52.65-104.67-144.492-77.469-206.585c15.631-35.683,56.977-63.863,84.155-55.942
				c11.615,3.385,18.978,12.878,54.244,89.065c28.945,62.531,35.382,80.76,54.044,86.688c19.208,6.103,49.072-1.555,60.422-20.479
				c29.561-49.286-98.203-122.056-109.805-259.987c-5.199-61.811,11.523-153.423,67.497-173.059
				c37.84-13.275,91.75,7,111.238,41.714c17.569,31.295-3.774,54.841,9.629,125.143c4.067,21.333,12.436,65.234,30.099,67.537
				c20.736,2.704,43.936-53.273,49.298-66.905c40.369-102.633-5.92-155.409,32.144-205.231
				c29.682-38.85,94.267-54.454,145.431-34.831c44.771,17.172,80.587,61.825,82.98,108.102
				c2.434,47.084-37.167,93.956-116.368,187.699c-37.559,44.455-67.442,74.49-65.743,118.677c0.828,21.54,9.37,51.838,24.798,54.605
				c34.051,6.108,50.812-131.009,131.514-152.184c41.308-10.839,92.639,10.463,115.196,47.698
				c27.637,45.622,9.121,110.284-25.599,144.286c-45.301,44.363-91.758,10.649-176.997,58.301
				c-37.814,21.139-97.24,66.107-88.538,103.294c3.788,16.191,20.758,32.046,39.383,34.16
				c41.747,4.738,55.535-63.678,122.652-93.753c48.355-21.668,115.219-19.325,131.102,7.945
				c22.422,38.499-57.215,125.904-99.556,164.525C1182.551,3155.219,1061.838,3243.755,829.104,3245.592z"/>
			<path style="opacity:0.5;fill:#FFFFFF;" d="M852.039,3223.662c-6.75-114.429,69.044-347.51,124.189-457.699
				c53.961-107.82,105.578-278.392,106.092-280.103l3.361,1.013c-0.517,1.713-52.222,172.574-106.314,280.661
				c-54.973,109.846-130.541,342.064-123.825,455.92L852.039,3223.662z"/>
		</g>
		
			<linearGradient id="SVGID_00000042017634585924202320000008228542627881816706_" gradientUnits="userSpaceOnUse" x1="1007.9348" y1="2794.8154" x2="505.2263" y2="3397.4595">
			<stop  offset="0.0036" style="stop-color:#E38DDD"/>
			<stop  offset="1" style="stop-color:#9571F6"/>
		</linearGradient>
		<path style="fill:url(#SVGID_00000042017634585924202320000008228542627881816706_);" d="M708.72,3260.513
			c-38.458-53.394-94.872-149.733-104.989-278.624c-4.169-53.11-12.31-156.841,51.148-246.32
			c31.629-44.598,98.703-110.555,144.023-91.529c29.161,12.242,47.264,58.81,39.034,94.22
			c-8.298,35.705-38.475,39.013-71.338,99.605c-12.161,22.421-26.053,48.74-15.38,63.609c8.913,12.418,33.401,14.677,51.761,7.23
			c37.926-15.383,26.075-62.601,67.076-96.468c29.154-24.083,77.754-35.403,98.727-15.678c18.21,17.127,15.038,57.137-1.053,83.807
			c-25.766,42.706-71.968,30.178-102.089,76.867c-13.363,20.713-22.862,51.999-11.167,64.368
			c13.327,14.095,52.545,1.906,77.68-13.675c33.186-20.571,34.411-42.46,56.266-45.204c24.377-3.06,54.854,20.155,59.621,45.838
			c6.675,35.972-37.457,74.769-72.404,91.625c-44.739,21.578-77.983,8.914-99.833,38.395c-8.02,10.82-15.366,28.48-8.79,39.197
			c9.383,15.29,43.293,10.242,65.809,6.89c54.797-8.157,69.884-28.029,89.519-18.374c19.88,9.776,30.133,42.793,21.536,65.955
			c-4.778,12.872-19.131,32.81-90.254,45.295C903.84,3286.28,820.202,3292.427,708.72,3260.513z"/>
	</g>
</g>
</svg>
